<mxfile host="app.diagrams.net" modified="2021-12-10T09:03:16.803Z" agent="5.0 (Macintosh; Intel Mac OS X 10_15_7) AppleWebKit/605.1.15 (KHTML, like Gecko) Version/15.1 Safari/605.1.15" etag="hTTDFZwDTdZkvfyo6Jem" version="15.9.4" type="github">
  <diagram id="prtHgNgQTEPvFCAcTncT" name="Page-1">
    <mxGraphModel dx="884" dy="506" grid="1" gridSize="10" guides="1" tooltips="1" connect="1" arrows="1" fold="1" page="0" pageScale="1" pageWidth="827" pageHeight="1169" math="0" shadow="0">
      <root>
        <mxCell id="0" />
        <mxCell id="1" parent="0" />
        <mxCell id="07qmuEmJWsrUPiBE4O00-23" value="" style="rounded=0;whiteSpace=wrap;html=1;fillColor=none;dashed=1;" vertex="1" parent="1">
          <mxGeometry x="570" y="200" width="190" height="370" as="geometry" />
        </mxCell>
        <mxCell id="07qmuEmJWsrUPiBE4O00-22" value="" style="rounded=0;whiteSpace=wrap;html=1;fillColor=none;dashed=1;" vertex="1" parent="1">
          <mxGeometry y="400" width="570" height="170" as="geometry" />
        </mxCell>
        <mxCell id="07qmuEmJWsrUPiBE4O00-18" value="" style="rounded=0;whiteSpace=wrap;html=1;fillColor=none;dashed=1;" vertex="1" parent="1">
          <mxGeometry y="200" width="570" height="200" as="geometry" />
        </mxCell>
        <mxCell id="07qmuEmJWsrUPiBE4O00-1" value="Servlet Filter (log request and response)" style="rounded=0;whiteSpace=wrap;html=1;fillColor=#1ba1e2;fontColor=#ffffff;strokeColor=#006EAF;" vertex="1" parent="1">
          <mxGeometry y="140" width="760" height="50" as="geometry" />
        </mxCell>
        <mxCell id="07qmuEmJWsrUPiBE4O00-3" value="ResponseDataBodyAdvice&lt;br&gt;(wrap json body)" style="rounded=0;whiteSpace=wrap;html=1;fillColor=#60a917;fontColor=#ffffff;strokeColor=#2D7600;" vertex="1" parent="1">
          <mxGeometry x="30" y="220" width="250" height="50" as="geometry" />
        </mxCell>
        <mxCell id="07qmuEmJWsrUPiBE4O00-4" value="ResponseEntityExceptionHandler" style="rounded=0;whiteSpace=wrap;html=1;fillColor=#60a917;fontColor=#ffffff;strokeColor=#2D7600;" vertex="1" parent="1">
          <mxGeometry x="300" y="220" width="250" height="50" as="geometry" />
        </mxCell>
        <mxCell id="07qmuEmJWsrUPiBE4O00-5" value="CustomFeignLogger" style="rounded=0;whiteSpace=wrap;html=1;fillColor=#d80073;fontColor=#ffffff;strokeColor=#A50040;" vertex="1" parent="1">
          <mxGeometry x="30" y="490" width="520" height="50" as="geometry" />
        </mxCell>
        <mxCell id="07qmuEmJWsrUPiBE4O00-6" value="FeignErrorDecoder" style="rounded=0;whiteSpace=wrap;html=1;fillColor=#d80073;fontColor=#ffffff;strokeColor=#A50040;" vertex="1" parent="1">
          <mxGeometry x="30" y="420" width="520" height="50" as="geometry" />
        </mxCell>
        <mxCell id="07qmuEmJWsrUPiBE4O00-10" value="Sleuth Tracing Filter" style="rounded=0;whiteSpace=wrap;html=1;fillColor=#1ba1e2;fontColor=#ffffff;strokeColor=#006EAF;" vertex="1" parent="1">
          <mxGeometry y="80" width="760" height="50" as="geometry" />
        </mxCell>
        <mxCell id="07qmuEmJWsrUPiBE4O00-16" value="Reverse Proxy Filter" style="rounded=0;whiteSpace=wrap;html=1;fillColor=#f0a30a;fontColor=#000000;strokeColor=#BD7000;" vertex="1" parent="1">
          <mxGeometry x="580" y="200" width="170" height="50" as="geometry" />
        </mxCell>
        <mxCell id="07qmuEmJWsrUPiBE4O00-17" value="" style="group" vertex="1" connectable="0" parent="1">
          <mxGeometry x="580" y="260" width="170" height="300" as="geometry" />
        </mxCell>
        <mxCell id="07qmuEmJWsrUPiBE4O00-8" value="Proxy Error Interceptor" style="rounded=0;whiteSpace=wrap;html=1;rotation=90;fillColor=#f0a30a;fontColor=#000000;strokeColor=#BD7000;" vertex="1" parent="07qmuEmJWsrUPiBE4O00-17">
          <mxGeometry x="-5" y="125" width="300" height="50" as="geometry" />
        </mxCell>
        <mxCell id="07qmuEmJWsrUPiBE4O00-11" value="Proxy Log Interceptor" style="rounded=0;whiteSpace=wrap;html=1;rotation=90;fillColor=#f0a30a;fontColor=#000000;strokeColor=#BD7000;" vertex="1" parent="07qmuEmJWsrUPiBE4O00-17">
          <mxGeometry x="-125" y="125" width="300" height="50" as="geometry" />
        </mxCell>
        <mxCell id="07qmuEmJWsrUPiBE4O00-12" value="Other Interceptor" style="rounded=0;whiteSpace=wrap;html=1;rotation=90;fillColor=#f0a30a;fontColor=#000000;strokeColor=#BD7000;" vertex="1" parent="07qmuEmJWsrUPiBE4O00-17">
          <mxGeometry x="-65" y="125" width="300" height="50" as="geometry" />
        </mxCell>
        <mxCell id="07qmuEmJWsrUPiBE4O00-13" value="" style="endArrow=classic;html=1;rounded=0;exitX=0;exitY=0.5;exitDx=0;exitDy=0;entryX=0.5;entryY=0;entryDx=0;entryDy=0;" edge="1" parent="07qmuEmJWsrUPiBE4O00-17" source="07qmuEmJWsrUPiBE4O00-11" target="07qmuEmJWsrUPiBE4O00-8">
          <mxGeometry width="50" height="50" relative="1" as="geometry">
            <mxPoint x="-195" y="300" as="sourcePoint" />
            <mxPoint x="-145" y="250" as="targetPoint" />
          </mxGeometry>
        </mxCell>
        <mxCell id="07qmuEmJWsrUPiBE4O00-15" style="rounded=0;orthogonalLoop=1;jettySize=auto;html=1;exitX=0.5;exitY=0;exitDx=0;exitDy=0;entryX=1;entryY=0.5;entryDx=0;entryDy=0;" edge="1" parent="07qmuEmJWsrUPiBE4O00-17" source="07qmuEmJWsrUPiBE4O00-8" target="07qmuEmJWsrUPiBE4O00-11">
          <mxGeometry relative="1" as="geometry" />
        </mxCell>
        <mxCell id="07qmuEmJWsrUPiBE4O00-21" value="Biz" style="rounded=0;whiteSpace=wrap;html=1;fillColor=#60a917;fontColor=#ffffff;strokeColor=#2D7600;" vertex="1" parent="1">
          <mxGeometry x="30" y="280" width="520" height="110" as="geometry" />
        </mxCell>
      </root>
    </mxGraphModel>
  </diagram>
</mxfile>
